<?xml version="1.0" standalone="no"?>
<!DOCTYPE svg PUBLIC "-//W3C//DTD SVG 20010904//EN"
 "http://www.w3.org/TR/2001/REC-SVG-20010904/DTD/svg10.dtd">
<svg version="1.0" xmlns="http://www.w3.org/2000/svg"
 width="765.000000pt" height="306.000000pt" viewBox="0 0 765.000000 306.000000"
 preserveAspectRatio="xMidYMid meet">
<metadata>
Created by potrace 1.16, written by Peter Selinger 2001-2019
</metadata>
<g transform="translate(0.000000,306.000000) scale(0.100000,-0.100000)"
fill="#000000" stroke="none">
<path d="M1288 2562 c-71 -43 -128 -82 -128 -87 0 -13 253 -165 274 -165 23 0
286 152 286 165 0 13 -267 165 -289 164 -9 0 -73 -35 -143 -77z"/>
<path d="M968 2382 c-71 -43 -128 -82 -128 -87 0 -13 253 -165 274 -165 23 0
286 152 286 165 0 13 -267 165 -289 164 -9 0 -73 -35 -143 -77z"/>
<path d="M1618 2372 c-71 -42 -128 -81 -128 -87 0 -13 253 -165 274 -165 23 0
286 152 286 165 0 13 -267 165 -289 164 -9 0 -73 -35 -143 -77z"/>
<path d="M1938 2192 c-71 -43 -128 -82 -128 -87 0 -6 59 -45 131 -89 110 -66
134 -77 153 -68 11 5 74 42 139 80 65 39 124 73 130 75 7 2 10 7 7 9 -17 18
-275 158 -288 157 -10 0 -74 -35 -144 -77z"/>
<path d="M643 2182 c-124 -72 -152 -96 -120 -104 6 -2 72 -36 145 -76 73 -41
136 -72 141 -70 37 15 261 154 261 162 0 14 -244 158 -273 162 -13 2 -75 -28
-154 -74z"/>
<path d="M2218 1997 l-137 -82 -1 -152 c0 -98 4 -153 10 -153 6 0 71 35 145
77 l135 77 0 158 c0 87 -3 158 -7 158 -5 -1 -70 -38 -145 -83z"/>
<path d="M968 1992 c-71 -43 -128 -79 -128 -82 0 -6 285 -164 295 -163 17 0
265 148 265 158 0 13 -267 165 -289 164 -9 0 -73 -35 -143 -77z"/>
<path d="M3016 1903 c-5 -18 -116 -654 -116 -667 0 -4 28 -6 63 -4 l62 3 40
234 41 235 103 -238 104 -237 61 3 60 3 58 325 c31 179 57 333 57 343 1 14 -8
17 -58 17 -38 0 -61 -4 -64 -12 -2 -7 -22 -115 -43 -239 l-38 -227 -103 237
-102 236 -60 3 c-50 2 -60 0 -65 -15z"/>
<path d="M5015 1898 c-6 -26 -115 -653 -115 -662 0 -3 28 -6 63 -6 l63 0 20
123 19 122 117 6 c104 5 125 9 175 35 38 19 68 44 88 72 26 38 30 54 33 120 4
95 -14 134 -83 177 -48 30 -50 30 -211 33 l-163 4 -6 -24z m277 -89 c61 -16
82 -75 54 -144 -24 -56 -66 -75 -168 -75 -64 0 -88 3 -88 13 0 14 30 186 35
205 5 15 114 16 167 1z"/>
<path d="M1300 1809 c-63 -38 -118 -73 -123 -78 -7 -7 258 -161 277 -161 9 0
267 152 264 155 -26 21 -274 155 -286 154 -10 0 -69 -32 -132 -70z"/>
<path d="M3640 1745 c0 -2 -13 -86 -30 -186 -32 -193 -30 -250 8 -292 45 -50
126 -61 200 -27 34 16 42 16 42 5 0 -11 14 -15 54 -15 51 0 55 2 60 28 3 15
21 122 41 237 19 116 38 220 40 233 5 21 2 22 -55 22 -70 0 -58 24 -99 -209
-25 -148 -31 -167 -55 -187 -33 -29 -91 -41 -112 -23 -32 26 -32 53 -3 224 16
94 29 176 29 183 0 8 -19 12 -60 12 -33 0 -60 -2 -60 -5z"/>
<path d="M4130 1558 c-18 -106 -38 -223 -45 -260 l-13 -68 62 0 62 0 28 173
c16 94 33 182 37 194 16 45 111 70 143 37 22 -21 20 -64 -9 -234 -14 -80 -25
-151 -25 -157 0 -9 19 -13 60 -13 33 0 60 3 60 6 0 21 53 315 61 341 19 60 87
91 139 63 31 -16 31 -51 0 -229 -17 -95 -30 -175 -30 -177 0 -2 27 -4 59 -4
69 0 57 -26 96 210 16 93 24 169 20 190 -16 85 -59 120 -145 120 -57 0 -106
-18 -133 -47 -18 -20 -18 -20 -51 13 -32 32 -39 34 -98 34 -44 0 -74 -6 -101
-20 l-37 -20 0 20 c0 18 -7 20 -53 20 l-54 0 -33 -192z"/>
<path d="M5535 1728 c3 -13 23 -126 44 -253 39 -230 39 -230 20 -266 -25 -50
-64 -79 -105 -79 -30 0 -34 -3 -34 -27 0 -16 -3 -38 -6 -49 -5 -18 0 -22 30
-28 52 -10 111 10 151 49 23 23 86 138 190 345 85 170 155 314 155 320 0 6
-26 10 -63 10 l-63 0 -74 -161 c-85 -186 -79 -187 -105 24 l-17 137 -64 0
c-62 0 -64 -1 -59 -22z"/>
<path d="M2213 1642 l-133 -77 0 -167 c0 -108 4 -168 10 -168 6 0 71 35 145
77 l135 77 0 168 c0 128 -3 168 -12 167 -7 0 -73 -35 -145 -77z"/>
<path d="M1588 1623 l-128 -77 0 -159 c0 -87 4 -157 8 -155 5 2 66 36 135 77
l127 75 0 158 c0 87 -3 158 -7 157 -5 0 -65 -34 -135 -76z"/>
<path d="M1585 1266 l-120 -73 -3 -172 c-1 -95 1 -171 6 -169 5 1 66 36 135
77 l127 75 0 168 c0 128 -3 168 -12 167 -7 0 -67 -33 -133 -73z"/>
<path d="M2213 1262 l-133 -77 0 -167 c0 -108 4 -168 10 -168 6 0 71 35 145
77 l135 77 0 168 c0 128 -3 168 -12 167 -7 0 -73 -35 -145 -77z"/>
</g>
</svg>
