<?xml version="1.0" standalone="no"?>
<!DOCTYPE svg PUBLIC "-//W3C//DTD SVG 20010904//EN"
 "http://www.w3.org/TR/2001/REC-SVG-20010904/DTD/svg10.dtd">
<svg version="1.0" xmlns="http://www.w3.org/2000/svg"
 width="1200.000000pt" height="646.000000pt" viewBox="0 0 1200.000000 646.000000"
 preserveAspectRatio="xMidYMid meet">
<metadata>
Created by potrace 1.16, written by Peter Selinger 2001-2019
</metadata>
<g transform="translate(0.000000,646.000000) scale(0.100000,-0.100000)"
fill="#000000" stroke="none">
<path d="M5739 3238 l-217 -80 -65 -137 c-202 -422 -351 -870 -418 -1256 -29
-171 -37 -400 -15 -496 30 -134 88 -232 172 -290 67 -46 119 -61 215 -61 179
0 350 88 620 319 47 40 88 73 91 73 3 0 8 -15 11 -34 9 -57 59 -147 116 -208
100 -108 203 -150 371 -149 225 0 388 77 644 305 l82 74 11 -53 c27 -128 126
-262 225 -305 101 -43 231 -24 348 51 79 51 203 175 290 292 l65 87 6 -113
c12 -209 75 -314 203 -338 53 -10 137 6 201 38 69 35 186 128 345 275 165 152
288 290 372 418 l63 96 66 16 c36 9 94 27 128 41 l61 25 -30 -52 c-68 -112
-161 -316 -186 -404 -22 -78 -26 -108 -22 -185 3 -78 8 -100 33 -146 121 -220
376 -160 741 174 l84 76 0 -73 c0 -82 17 -298 23 -305 5 -4 358 76 366 84 3 2
8 81 12 176 8 199 30 340 63 406 25 49 217 272 307 357 73 69 132 106 161 102
42 -6 36 -67 -22 -224 -138 -373 -176 -517 -167 -641 16 -218 176 -311 403
-233 125 43 269 143 417 288 l87 87 0 103 0 104 -47 -53 c-74 -86 -184 -189
-240 -226 -127 -85 -206 -35 -173 109 7 29 44 139 82 243 139 378 169 515 137
628 -14 52 -71 112 -126 133 -39 15 -55 16 -111 6 -141 -24 -257 -104 -489
-339 -90 -90 -163 -159 -163 -154 0 20 70 252 113 374 38 107 43 127 29 126
-9 0 -102 -17 -207 -38 l-190 -37 -17 -34 c-33 -67 -137 -336 -162 -420 -22
-72 -57 -232 -68 -305 -3 -19 -171 -186 -242 -240 -17 -13 -52 -29 -77 -36
-56 -15 -92 -1 -126 50 -57 85 -26 206 226 896 28 76 51 143 51 147 0 4 -34 8
-75 8 l-74 0 -41 -70 c-110 -188 -262 -321 -394 -346 -35 -6 -39 -5 -34 12 3
10 18 60 32 109 44 148 34 254 -27 286 -40 22 -129 15 -189 -14 -64 -31 -84
-52 -132 -131 -49 -81 -77 -173 -78 -249 0 -89 24 -130 112 -188 l25 -16 -72
-94 c-85 -113 -344 -369 -401 -398 -41 -21 -95 -27 -127 -15 -30 12 -48 65
-47 139 1 100 37 249 152 635 55 184 100 338 100 342 0 4 -19 8 -42 8 -40 0
-131 -44 -344 -167 l-41 -23 -31 49 c-53 86 -155 141 -259 141 -165 0 -394
-119 -568 -295 -137 -138 -237 -313 -278 -485 l-22 -93 -98 -93 c-116 -110
-200 -168 -273 -190 -69 -20 -183 -19 -244 1 -92 31 -168 121 -204 243 -11 40
-12 54 -3 57 7 3 66 23 131 45 292 100 486 233 554 378 36 76 38 196 5 257
-29 55 -88 110 -148 137 -43 20 -66 23 -170 23 -99 0 -132 -4 -186 -23 -282
-97 -554 -448 -586 -755 -6 -57 -10 -66 -57 -115 -28 -29 -87 -85 -132 -123
-187 -159 -319 -197 -408 -118 -74 64 -99 175 -87 381 l8 124 94 110 c298 345
464 649 525 960 25 125 25 371 1 434 -23 58 -54 90 -86 89 -14 0 -123 -36
-242 -81z m209 -174 c40 -115 -33 -405 -169 -669 -78 -151 -268 -424 -277
-397 -8 24 103 474 165 667 71 222 167 430 211 454 25 14 55 -9 70 -55z m2336
-848 c77 -32 105 -121 86 -275 -27 -216 -145 -486 -269 -614 -61 -65 -113 -91
-178 -91 -63 0 -97 21 -130 84 -73 137 27 511 203 756 87 123 199 177 288 140z
m-1411 -16 c57 -45 57 -201 0 -313 -48 -96 -168 -186 -319 -238 l-57 -19 6 93
c4 50 14 121 22 157 31 130 120 273 200 321 41 26 115 25 148 -1z"/>
</g>
</svg>
