<?xml version="1.0" standalone="no"?>
<!DOCTYPE svg PUBLIC "-//W3C//DTD SVG 20010904//EN"
 "http://www.w3.org/TR/2001/REC-SVG-20010904/DTD/svg10.dtd">
<svg version="1.0" xmlns="http://www.w3.org/2000/svg"
 width="1200.000000pt" height="1283.000000pt" viewBox="0 0 1200.000000 1283.000000"
 preserveAspectRatio="xMidYMid meet">
<metadata>
Created by potrace 1.16, written by Peter Selinger 2001-2019
</metadata>
<g transform="translate(0.000000,1283.000000) scale(0.100000,-0.100000)"
fill="#000000" stroke="none">
<path d="M6830 9865 l0 -984 48 -27 c26 -15 99 -57 162 -94 63 -37 180 -104
260 -150 80 -46 197 -113 260 -150 108 -63 537 -310 838 -484 227 -131 605
-349 777 -448 72 -42 234 -135 360 -208 127 -73 286 -165 355 -205 275 -159
339 -195 344 -195 3 0 6 443 6 984 l0 983 -1700 982 c-935 539 -1703 981
-1705 981 -3 0 -5 -443 -5 -985z"/>
<path d="M2 7894 l3 -988 55 -31 c47 -27 350 -202 973 -561 228 -132 464 -269
660 -381 4 -2 7 440 7 984 l-1 988 -781 450 c-430 248 -812 467 -850 488 l-68
39 2 -988z"/>
<path d="M4275 7410 c-456 -263 -838 -484 -847 -490 -17 -10 -18 -162 -18
-2964 l0 -2955 58 -34 c31 -19 116 -68 187 -109 145 -84 520 -300 720 -416 72
-41 186 -107 255 -147 69 -40 201 -116 293 -169 92 -53 174 -99 182 -103 13
-4 15 239 15 1966 0 1084 2 1971 4 1971 1 0 385 -220 852 -490 l849 -490 3
977 c1 606 -2 981 -7 986 -6 6 -389 229 -853 496 l-843 487 -3 982 c-1 540 -5
982 -10 982 -4 0 -380 -216 -837 -480z"/>
</g>
</svg>
